<svg xmlns="http://www.w3.org/2000/svg" width="42" height="42" viewBox="0 0 42 42" fill="none">
  <g clip-path="url(#clip0_161_114)">
    <path d="M26.833 30.3333C26.833 30.6427 26.7101 30.9394 26.4913 31.1582C26.2725 31.377 25.9758 31.4999 25.6663 31.4999H9.33301C9.07634 31.4999 8.83134 31.7333 8.62134 31.8849L4.66634 34.9999V16.3333C4.66634 16.0238 4.78926 15.7271 5.00805 15.5083C5.22684 15.2895 5.52359 15.1666 5.83301 15.1666H10.3363V12.8333H5.83301C4.90475 12.8333 4.01451 13.202 3.35813 13.8584C2.70176 14.5148 2.33301 15.405 2.33301 16.3333V37.3333C2.33474 37.5499 2.39679 37.7618 2.51218 37.9452C2.62757 38.1286 2.79176 38.2763 2.98634 38.3716C3.1738 38.4568 3.38048 38.4909 3.58539 38.4705C3.79031 38.45 3.98614 38.3756 4.15301 38.2549L10.1613 33.8333H25.8413C26.2835 33.8463 26.7237 33.7685 27.1345 33.6045C27.5454 33.4406 27.9182 33.194 28.2299 32.8801C28.5416 32.5662 28.7856 32.1917 28.9467 31.7797C29.1077 31.3677 29.1825 30.927 29.1663 30.4849V29.1666H26.833V30.3333Z" fill="#47A5DC"/>
    <path d="M36.1663 4.66675H16.333C15.4048 4.66675 14.5145 5.0355 13.8581 5.69187C13.2018 6.34825 12.833 7.23849 12.833 8.16675V22.1667C12.833 23.095 13.2018 23.9852 13.8581 24.6416C14.5145 25.298 15.4048 25.6667 16.333 25.6667H32.1413L37.718 29.9951C37.8838 30.1176 38.0791 30.1941 38.284 30.2166C38.489 30.2392 38.6962 30.207 38.8847 30.1234C39.0832 30.0289 39.251 29.8801 39.3686 29.6943C39.4863 29.5086 39.5491 29.2933 39.5497 29.0734V8.16675C39.5502 7.25835 39.1975 6.38535 38.5661 5.73223C37.9348 5.0791 37.0742 4.69703 36.1663 4.66675ZM37.333 26.7634L33.2497 23.5784C33.046 23.4204 32.7958 23.3342 32.538 23.3334H16.333C16.0236 23.3334 15.7268 23.2105 15.5081 22.9917C15.2893 22.7729 15.1663 22.4762 15.1663 22.1667V8.16675C15.1663 7.85733 15.2893 7.56058 15.5081 7.34179C15.7268 7.123 16.0236 7.00008 16.333 7.00008H36.1663C36.4782 7.02839 36.769 7.16974 36.9838 7.39751C37.1987 7.62529 37.3229 7.92377 37.333 8.23675V26.7634Z" fill="#47A5DC"/>
  </g>
  <defs>
    <clipPath id="clip0_161_114">
      <rect width="42" height="42" fill="white"/>
    </clipPath>
  </defs>
</svg>