<svg width="47" height="47" viewBox="0 0 47 47" fill="none" xmlns="http://www.w3.org/2000/svg">
<path d="M44.815 13.8443C46.1278 12.3525 46.9632 10.3832 46.9632 8.29483C46.9632 3.69981 43.2036 0.00012207 38.6685 0.00012207C36.5202 0.00012207 34.6109 0.776014 33.119 2.08893C30.0758 0.776099 26.8531 0.0601159 23.4519 0.0601159C10.5026 0.0601159 -3.05052e-05 10.5627 -3.05052e-05 23.5121C-0.000446733 36.4614 10.5021 46.963 23.4509 46.963C36.3996 46.963 46.9028 36.4604 46.9028 23.5707C46.9028 20.229 46.1868 17.0063 44.874 14.0226C44.874 13.9631 44.8145 13.9035 44.8145 13.844L44.815 13.8443ZM23.4516 44.5765C19.1551 44.5765 15.1569 43.3232 11.8151 41.1154C11.8151 40.996 11.8747 40.8769 11.8747 40.817C11.8747 34.4316 17.0662 29.2402 23.4515 29.2402C29.8368 29.2406 35.0282 34.4321 35.0282 40.817C35.0282 40.9364 35.0282 41.0555 35.0878 41.1154C31.7461 43.3237 27.7479 44.5765 23.4513 44.5765H23.4516ZM18.2002 21.0052C18.2002 18.0811 20.5869 15.7538 23.4516 15.7538C26.3159 15.7538 28.703 18.0811 28.703 21.0052C28.703 23.6905 26.7338 25.8987 24.108 26.1968C23.8695 26.1968 23.6901 26.2563 23.4516 26.2563C23.2131 26.2563 23.0337 26.2563 22.7951 26.1968C20.1694 25.8983 18.2001 23.631 18.2001 21.0052H18.2002ZM37.8926 38.8478C37.1767 33.5364 33.5961 29.1208 28.7625 27.2113C30.5528 25.7195 31.6866 23.4518 31.6866 21.0054C31.6866 16.4703 27.9865 12.7703 23.4515 12.7703C18.9165 12.7703 15.2163 16.4104 15.2163 20.9455C15.2163 23.4519 16.3503 25.7196 18.1405 27.2114C13.307 29.1212 9.72633 33.5368 9.01034 38.8479C4.95229 35.0283 2.38651 29.5384 2.38651 23.5116C2.38651 11.8752 11.815 2.44666 23.4515 2.44666C26.2562 2.44666 29.001 3.04357 31.5077 4.05797C30.7918 5.31134 30.3738 6.7432 30.3738 8.29505C30.3738 12.8901 34.1334 16.5898 38.6685 16.5898C40.2199 16.5898 41.6522 16.1718 42.9056 15.3964C43.9795 17.9622 44.5169 20.6478 44.5169 23.5121C44.5165 29.5386 41.9507 35.0281 37.8926 38.8483V38.8478ZM38.6685 14.262C35.3863 14.262 32.7607 11.6363 32.7607 8.35419C32.7607 5.072 35.4459 2.44634 38.6685 2.44634C41.8907 2.44634 44.5764 5.07211 44.5764 8.35419C44.576 11.6364 41.9506 14.262 38.6685 14.262Z" fill="#47A5DC"/>
<path d="M42.3084 8.29479C42.3084 8.95122 41.7715 9.48817 41.1151 9.48817H39.8022V10.801C39.8022 11.4574 39.2653 11.9944 38.6088 11.9944C37.9524 11.9944 37.4155 11.4574 37.4155 10.801V9.48817H36.1621C35.5057 9.48817 34.9687 8.95119 34.9687 8.29479C34.9687 7.63835 35.5057 7.10141 36.1621 7.10141H37.4155V5.84804C37.4155 5.1916 37.9524 4.65466 38.6088 4.65466C39.2653 4.65466 39.8022 5.19163 39.8022 5.84804V7.10141H41.1151C41.7715 7.10141 42.3084 7.63838 42.3084 8.29479Z" fill="#47A5DC"/>
</svg>
