<svg width="19" height="18" viewBox="0 0 19 18" fill="none" xmlns="http://www.w3.org/2000/svg">
<path fill-rule="evenodd" clip-rule="evenodd" d="M13.5 4.07837V10.5826C13.5 11.2894 13.226 11.849 12.7755 12.2206C12.336 12.5825 11.769 12.732 11.2265 12.7096C10.5995 12.6843 9.9445 12.4189 9.5045 11.924C9.391 12.8153 9.718 13.4081 9.8665 13.5644L10.2065 13.9215L9.4735 14.5839L9.1335 14.2269C8.7265 13.7992 8.2895 12.7915 8.569 11.4749C8.14129 11.5627 7.69962 11.5636 7.2715 11.4779C6.823 11.3853 6.382 11.1861 6.048 10.8515C5.706 10.5091 5.5 10.0478 5.5 9.49258C5.5 8.69185 5.7935 8.11321 6.318 7.69044C6.803 7.29933 7.4615 7.06456 8.1275 6.85464C8.2835 6.80593 8.443 6.75723 8.6055 6.70706C9.875 6.31887 11.3175 5.87759 12.677 4.75734L13.5 4.07837ZM9.9805 10.5524C10.191 10.1764 10.4805 9.7741 10.8715 9.35085L11.2065 8.98896L10.463 8.33726L10.128 8.69915C9.633 9.23492 9.272 9.75608 9.016 10.2505C8.64 10.5193 8.035 10.6396 7.4785 10.5247C7.177 10.4623 6.9305 10.3381 6.7645 10.172C6.6065 10.0142 6.5 9.79797 6.5 9.49209C6.5 8.96314 6.675 8.66652 6.9555 8.44003C7.275 8.18286 7.7575 7.99486 8.4355 7.78103C8.583 7.73476 8.738 7.68752 8.8985 7.63833C9.938 7.32222 11.2285 6.92965 12.5 6.10358V10.5826C12.5 11.0283 12.3365 11.3064 12.13 11.4764C11.9125 11.6556 11.6035 11.7501 11.2685 11.7365C10.6045 11.7097 10.0135 11.2864 9.9805 10.5524Z" fill="#47A5DC"/>
<path fill-rule="evenodd" clip-rule="evenodd" d="M9.5 17.3051L9.282 17.7434L9.28 17.7425L9.274 17.7395L9.2525 17.7293L9.1725 17.6903C9.1035 17.6563 9.0035 17.6056 8.877 17.5394C7.37847 16.7495 5.96967 15.8078 4.674 14.73C2.392 12.8173 0 9.98109 0 6.45522C0 4.8708 0.5385 3.33606 1.4605 2.18854C2.3855 1.03858 3.716 0.257812 5.281 0.257812C7.14 0.257812 8.551 1.28406 9.5 2.73113C10.4495 1.28454 11.86 0.257812 13.719 0.257812C15.284 0.257812 16.6145 1.03858 17.539 2.18902C18.462 3.33606 19 4.87032 19 6.45571C19 9.84714 16.604 12.6838 14.3295 14.6248C12.947 15.7949 11.4415 16.8196 9.838 17.6816C9.81158 17.6955 9.78508 17.7093 9.7585 17.723L9.737 17.7342L9.7315 17.7371L9.729 17.7381L9.5 17.3051ZM2.248 2.78909C1.4705 3.7564 1 5.07683 1 6.45522C1 9.54419 3.108 12.1329 5.326 13.9916C6.60812 15.0573 8.00552 15.984 9.4935 16.7552L9.6405 16.6753C11.0748 15.8794 12.4247 14.9472 13.6705 13.8922C15.8955 11.9927 18 9.40489 18 6.45474C18 5.07634 17.5295 3.7564 16.752 2.78909C15.977 1.82519 14.917 1.23194 13.719 1.23194C12.062 1.23194 10.779 2.28741 9.949 3.94002L9.5 4.83476L9.051 3.941C8.221 2.28741 6.938 1.23194 5.281 1.23194C4.083 1.23194 3.023 1.82519 2.248 2.78909Z" fill="#47A5DC"/>
<path d="M9.49925 17.3052L9.72825 17.7387L9.50625 17.8498L9.28125 17.744L9.49925 17.3052Z" fill="#47A5DC"/>
</svg>
