<svg width="42" height="42" viewBox="0 0 42 42" fill="none" xmlns="http://www.w3.org/2000/svg">
<path d="M27.5625 3.5C28.6068 3.5 29.6083 3.91484 30.3467 4.65327C31.0852 5.39169 31.5 6.39321 31.5 7.4375V34.5625C31.5 35.6068 31.0852 36.6083 30.3467 37.3467C29.6083 38.0852 28.6068 38.5 27.5625 38.5H14.4375C13.3932 38.5 12.3917 38.0852 11.6533 37.3467C10.9148 36.6083 10.5 35.6068 10.5 34.5625V7.4375C10.5 6.39321 10.9148 5.39169 11.6533 4.65327C12.3917 3.91484 13.3932 3.5 14.4375 3.5H27.5625ZM27.5625 6.125H14.4375C14.0894 6.125 13.7556 6.26328 13.5094 6.50942C13.2633 6.75556 13.125 7.0894 13.125 7.4375V34.5625C13.125 35.287 13.713 35.875 14.4375 35.875H27.5625C27.9106 35.875 28.2444 35.7367 28.4906 35.4906C28.7367 35.2444 28.875 34.9106 28.875 34.5625V7.4375C28.875 7.0894 28.7367 6.75556 28.4906 6.50942C28.2444 6.26328 27.9106 6.125 27.5625 6.125ZM23.1857 30.625C23.5338 30.6245 23.8679 30.7624 24.1143 31.0082C24.3608 31.254 24.4995 31.5877 24.5 31.9358C24.5005 32.2838 24.3626 32.6179 24.1168 32.8643C23.871 33.1108 23.5373 33.2495 23.1893 33.25L18.8143 33.257C18.4662 33.2575 18.1321 33.1196 17.8857 32.8738C17.6392 32.628 17.5005 32.2943 17.5 31.9462C17.4995 31.5982 17.6374 31.2641 17.8832 31.0177C18.129 30.7712 18.4627 30.6325 18.8107 30.632L23.1857 30.625ZM25.375 15.7482C25.5798 15.7482 25.7781 15.82 25.9355 15.9511C26.0928 16.0822 26.1991 16.2643 26.236 16.4658L26.25 16.6232V27.125C26.2501 27.3298 26.1783 27.5281 26.0472 27.6855C25.9161 27.8428 25.7339 27.9491 25.5325 27.986L25.375 28H16.625C16.4202 28.0001 16.2219 27.9283 16.0645 27.7972C15.9072 27.6661 15.8009 27.4839 15.764 27.2825L15.75 27.1268V16.625C15.7499 16.4202 15.8217 16.2219 15.9528 16.0645C16.0839 15.9072 16.266 15.8009 16.4675 15.764L16.625 15.75H25.375V15.7482ZM25.375 8.75C25.5798 8.74993 25.7781 8.8217 25.9355 8.95281C26.0928 9.08391 26.1991 9.26605 26.236 9.4675L26.25 9.625V13.1337C26.2501 13.3385 26.1783 13.5369 26.0472 13.6942C25.9161 13.8515 25.7339 13.9579 25.5325 13.9948L25.375 14.0087H16.625C16.4202 14.0088 16.2219 13.937 16.0645 13.8059C15.9072 13.6748 15.8009 13.4927 15.764 13.2912L15.75 13.132V9.625C15.7499 9.42021 15.8217 9.22187 15.9528 9.06455C16.0839 8.90722 16.266 8.80086 16.4675 8.764L16.625 8.75H25.375Z" fill="#47A5DC"/>
</svg>
