<svg xmlns="http://www.w3.org/2000/svg" width="56" height="56" viewBox="0 0 56 56" fill="none">
  <path d="M30.333 9.33341H13.9997C12.762 9.33341 11.575 9.82508 10.6998 10.7002C9.82467 11.5754 9.33301 12.7624 9.33301 14.0001V42.0001C9.33301 43.2378 9.82467 44.4247 10.6998 45.2999C11.575 46.1751 12.762 46.6667 13.9997 46.6667H30.333M39.6663 9.33341H41.9997C43.2374 9.33341 44.4243 9.82508 45.2995 10.7002C46.1747 11.5754 46.6663 12.7624 46.6663 14.0001V16.3334M46.6663 39.6667V42.0001C46.6663 43.2378 46.1747 44.4247 45.2995 45.2999C44.4243 46.1751 43.2374 46.6667 41.9997 46.6667H39.6663M46.6663 25.6667V30.3334M27.9997 4.66675V51.3334" stroke="#47A5DC" stroke-width="2.5" stroke-linecap="round" stroke-linejoin="round"/>
</svg>